<svg width="123" height="156" viewBox="0 0 123 156" fill="none" xmlns="http://www.w3.org/2000/svg">
<path d="M92.0869 9.46355C94.5467 20.5693 96.8633 31.71 98.8054 42.9184C99.7448 48.3421 100.633 53.7728 101.249 59.2446C101.791 64.0565 101.859 69.3482 99.4581 73.7089C98.3893 75.6505 96.937 77.1876 95.2231 78.5662C93.4396 80.0014 91.4954 81.0972 89.2164 81.4883C84.5862 82.2824 79.8954 80.542 76.7529 77.0912C73.7064 73.7474 72.1289 69.3699 71.1074 65.028C69.843 59.6567 69.1054 54.1373 68.1534 48.7032C67.5766 45.4082 66.7958 42.1628 66.3637 38.8405C65.9712 35.8263 65.5217 32.8232 65.0694 29.8174C64.5753 26.537 64.1613 23.2455 63.7229 19.9575C63.5093 18.3568 63.2782 16.7596 63.1328 15.1512C62.9888 13.5547 62.9268 11.9324 62.716 10.3449C62.4216 10.7332 62.1273 11.1208 61.833 11.5091C66.7659 10.2932 71.7204 9.2247 76.6868 8.15687C81.6615 7.08694 86.6021 5.86895 91.5754 4.79273C91.2581 4.61185 90.9408 4.43097 90.6235 4.25009C90.8148 5.37659 91.352 6.23141 92.0952 7.08415C92.4974 7.54578 93.075 6.95704 92.8725 6.48214C92.5155 5.64547 92.3262 4.7194 92.1161 3.83664C92.0194 3.43158 91.5566 3.18155 91.1642 3.29399C86.3286 4.68099 81.4068 5.75232 76.4829 6.77336C71.52 7.80279 66.5592 8.63946 61.5135 9.13601C60.6987 9.21632 60.1921 9.83998 60.3535 10.6648C60.9283 13.6071 61.7703 16.497 62.3451 19.4449C62.9094 22.339 63.4954 25.2304 64.0367 28.1287C64.5892 31.0877 65.0499 34.0643 65.6386 37.017C66.2475 40.0725 66.7562 43.1265 67.1215 46.2211C67.7944 51.9234 68.6705 57.6907 69.9008 63.2995C70.9098 67.8998 72.3641 72.5385 75.0891 76.4306C77.7215 80.1914 81.5627 82.7887 86.1679 83.2615C90.9011 83.7476 95.9204 82.1594 99.209 78.6626C102.72 74.9297 104.239 69.9551 104.174 64.8848C104.102 59.2851 102.56 53.8657 101.457 48.4161C99.1018 36.7796 96.6308 25.1549 93.9191 13.5966C93.5781 12.144 93.2337 10.692 92.8857 9.24077C92.7591 8.72326 91.9714 8.94395 92.0869 9.46355Z" fill="black"/>
<path d="M94.7854 40.1011C96.1931 46.3028 97.5563 52.6044 97.9613 58.9667C98.3148 64.5238 97.6885 70.4817 93.8077 74.7935C92.1258 76.6617 89.8852 78.0648 87.3342 78.2499C84.6843 78.4419 82.4137 77.0144 80.8835 74.9172C79.2649 72.6984 78.2058 70.069 77.3144 67.4877C76.3903 64.8115 75.6868 62.0445 75.1322 59.2691C73.8491 52.8523 73.085 46.3398 71.5722 39.9663C71.3092 40.2303 71.0454 40.495 70.7824 40.759C78.3318 41.7835 86.0398 42.072 93.6463 42.3653C94.4869 42.3981 94.4834 41.0935 93.6463 41.0558C89.858 40.8854 86.0719 40.6563 82.2892 40.3945C78.5086 40.1326 74.7363 39.7128 70.9536 39.4935C70.5465 39.4698 70.2118 39.9258 70.3343 40.3092C72.2597 46.3252 72.7677 52.6519 73.744 58.8633C74.6535 64.6529 75.8156 70.9838 79.1821 75.9158C80.7555 78.2205 82.8382 80.0699 85.6829 80.4623C88.6062 80.866 91.4564 79.7689 93.711 77.9398C98.3844 74.1475 99.3704 68.0653 99.2104 62.3685C99.1074 58.7041 98.6022 55.011 98.0253 51.3948C97.406 47.5131 96.5738 43.6832 95.3943 39.9328C95.2711 39.5445 94.695 39.703 94.7854 40.1011Z" fill="black"/>
<path d="M87.0634 71.6822C88.0857 71.0593 88.8149 69.9956 88.9812 68.8014C89.1441 67.6288 88.7196 66.422 87.8177 65.6426C86.9368 64.8813 85.7065 64.5454 84.5931 64.9707C83.4686 65.4009 82.6162 66.408 82.4903 67.6225C82.4193 68.309 82.6489 68.976 82.9613 69.5766C83.3128 70.2519 83.6718 70.8805 84.3057 71.3253C84.6481 71.5656 85.1651 71.421 85.3997 71.1061C85.6376 70.7869 85.6564 70.2722 85.3335 69.9886C84.9696 69.6688 84.5145 69.4334 84.2 69.1129C83.9349 68.8433 83.7762 68.4501 83.7352 68.0764C83.6544 67.3354 84.1081 66.6545 84.7609 66.2956C86.138 65.5385 87.7823 66.871 87.7461 68.3858C87.7252 69.2735 87.1964 70.1346 86.4379 70.6081C85.7622 71.0292 86.3787 72.0992 87.0634 71.6822Z" fill="black"/>
<path d="M82.1075 62.592C82.8145 62.6151 83.3754 62.0934 83.6384 61.4697C83.9001 60.8488 83.8702 60.112 83.4645 59.5582C83.0567 59.0009 82.4123 58.6747 81.7262 58.644C81.0088 58.6119 80.3623 58.9674 79.9427 59.538C79.7298 59.8264 79.5844 60.1777 79.5266 60.5311C79.4939 60.7322 79.4855 60.9201 79.4918 61.1219C79.4946 61.2113 79.48 61.2986 79.4848 61.388C79.4883 61.4564 79.5022 61.536 79.512 61.5996C79.5155 61.6275 79.5196 61.6548 79.5245 61.6827C79.5127 61.5926 79.5078 61.58 79.5099 61.6443C79.5036 62.0885 79.9726 62.3804 80.3686 62.2128C80.759 62.0473 80.8863 61.5102 80.5683 61.2043C80.4862 61.1247 80.5878 61.2825 80.5767 61.2155C80.5725 61.1917 80.5523 61.1638 80.5411 61.1422C80.5384 61.1359 80.5356 61.1296 80.5328 61.124C80.5773 61.2246 80.5676 61.1994 80.5029 61.0493C80.4987 61.0402 80.4639 60.9815 80.4674 60.9794C80.4869 60.9676 80.4952 61.2232 80.4987 61.0807C80.4994 61.0535 80.4952 61.0248 80.4938 60.9976C80.4917 60.9284 80.4931 60.8586 80.498 60.7895C80.498 60.7867 80.5154 60.6526 80.5029 60.7322C80.4924 60.8006 80.5071 60.7119 80.5105 60.6959C80.5238 60.6344 80.537 60.5737 80.5544 60.5129C80.5697 60.4591 80.5913 60.4081 80.608 60.3551C80.5794 60.4445 80.5954 60.3809 80.6066 60.3593C80.6247 60.3222 80.6427 60.2845 80.6622 60.2475C80.6922 60.1923 80.7256 60.1407 80.759 60.0883C80.7729 60.0666 80.8299 59.9933 80.7673 60.0715C80.7847 60.0499 80.8021 60.0289 80.8202 60.008C80.8564 59.9668 80.8946 59.927 80.9343 59.8892C80.9545 59.8704 80.9754 59.8529 80.9956 59.8341C81.0763 59.76 80.942 59.8627 81.0276 59.8103C81.0811 59.7775 81.1319 59.7433 81.1869 59.714C81.2168 59.6986 81.2468 59.6832 81.2774 59.67C81.2593 59.6776 81.1876 59.7007 81.2725 59.6755C81.3226 59.6602 81.3727 59.6434 81.4242 59.6315C81.4499 59.6253 81.4757 59.6211 81.5014 59.6155C81.6107 59.5896 81.427 59.6162 81.53 59.6113C81.6497 59.6057 81.7659 59.6036 81.8856 59.6169C81.7805 59.6057 81.9169 59.6246 81.9544 59.6336C82.0192 59.6483 82.0832 59.6665 82.1458 59.6881C82.1458 59.6881 82.2669 59.7342 82.2008 59.707C82.1451 59.6839 82.2224 59.7174 82.2349 59.7237C82.2878 59.7503 82.3407 59.7782 82.3915 59.8089C82.436 59.8362 82.4798 59.8662 82.5223 59.8976C82.445 59.8404 82.5807 59.9528 82.6058 59.9779C82.6246 59.9961 82.6427 60.0157 82.66 60.0345C82.66 60.0345 82.7415 60.1316 82.699 60.0778C82.6566 60.024 82.7317 60.126 82.7317 60.126C82.7463 60.1476 82.7602 60.17 82.7735 60.193C82.7999 60.2384 82.8243 60.2859 82.8451 60.3341C82.8083 60.2482 82.8667 60.4137 82.8758 60.4487C82.882 60.4745 82.8862 60.5003 82.8925 60.5255C82.9189 60.6393 82.9008 60.4717 82.8946 60.5394C82.8897 60.5967 82.9015 60.6589 82.9001 60.7168C82.8994 60.7511 82.8841 60.8893 82.8987 60.7923C82.889 60.8579 82.8751 60.9229 82.857 60.9864C82.8389 61.05 82.8187 61.1135 82.793 61.175C82.8271 61.0926 82.7916 61.1743 82.7811 61.1938C82.7651 61.2232 82.7512 61.2525 82.7345 61.2818C82.7018 61.3391 82.6656 61.395 82.6266 61.4481C82.6768 61.3796 82.6246 61.4494 82.61 61.4648C82.5884 61.4893 82.5668 61.5144 82.5445 61.5388C82.4965 61.5926 82.4464 61.6429 82.3921 61.6904C82.3838 61.6974 82.3205 61.7463 82.3594 61.7176C82.3921 61.6932 82.3017 61.7546 82.2898 61.7616C82.175 61.8329 82.0651 61.9076 81.9398 61.9607C81.8048 62.0179 81.7492 62.2121 81.7847 62.3427C81.8229 62.4907 81.9593 62.5878 82.1075 62.592Z" fill="black"/>
<path d="M91.8551 51.6853C93.5461 51.1517 94.1626 48.7227 92.8008 47.5173C92.1265 46.9209 91.1551 46.7009 90.286 46.9181C89.4238 47.1332 88.7405 47.8155 88.5811 48.7011C88.4962 49.1753 88.5261 49.6425 88.6799 50.0993C88.6959 50.1467 88.7126 50.1942 88.7314 50.241C88.7412 50.2641 88.7509 50.2871 88.7606 50.3102C88.7954 50.3905 88.7996 50.4023 88.7732 50.3444C88.7739 50.2843 88.7627 50.3234 88.7753 50.3611C88.8149 50.4841 88.8727 50.6112 88.9374 50.7243C89.0084 50.8479 89.0988 50.9625 89.1907 51.0707C89.2185 51.1035 89.2477 51.1329 89.2784 51.1622C89.3417 51.2209 89.6312 51.4492 89.4015 51.2649C89.6172 51.4381 89.8754 51.5575 90.1579 51.4653C90.3507 51.4024 90.5184 51.2858 90.6228 51.107C90.8538 50.711 90.6645 50.0343 90.1579 49.961C90.1371 49.9582 89.9499 49.9002 89.9471 49.9037C89.9645 49.8862 90.1245 49.9903 89.9854 49.9191C89.9534 49.9023 89.922 49.8848 89.8914 49.8653C89.8712 49.8527 89.8525 49.8373 89.8323 49.8262C89.7216 49.7633 89.9422 49.9281 89.8483 49.8367C89.8225 49.8115 89.7954 49.7843 89.7683 49.7612C89.7265 49.7158 89.7335 49.727 89.7878 49.7948C89.7738 49.7738 89.7599 49.7522 89.7474 49.7305C89.7342 49.7089 89.723 49.6858 89.7098 49.6642C89.6423 49.5566 89.7432 49.7794 89.7056 49.6565C89.6827 49.581 89.6569 49.5077 89.6395 49.4309C89.6312 49.3953 89.6061 49.1837 89.6186 49.3422C89.611 49.2486 89.604 49.1564 89.6054 49.0621C89.6068 48.9951 89.6124 48.9294 89.6186 48.8624C89.6054 49.0056 89.6186 48.8729 89.6242 48.8449C89.6319 48.8058 89.6402 48.7667 89.6507 48.7276C89.6674 48.6634 89.6896 48.6012 89.7098 48.5377C89.7502 48.4133 89.6583 48.6298 89.7195 48.5146C89.7446 48.4678 89.7669 48.4203 89.794 48.3749C89.8142 48.3407 89.8371 48.3086 89.858 48.2758C89.9067 48.1996 89.8629 48.2688 89.8511 48.2834C89.906 48.2192 89.9624 48.157 90.0243 48.0998C90.0564 48.0704 90.0897 48.0411 90.1245 48.0139C90.0431 48.0767 90.1607 47.9922 90.1691 47.9873C90.2428 47.9391 90.3201 47.9 90.3973 47.8588C90.5184 47.7953 90.3173 47.8826 90.4467 47.8372C90.4885 47.8225 90.5295 47.8071 90.5713 47.7939C90.6409 47.7722 90.7119 47.7541 90.7835 47.7394C90.9178 47.7115 91.041 47.701 91.2372 47.7087C91.5072 47.7191 91.8238 47.8022 92.0834 47.9496C92.6435 48.2688 92.9247 48.8582 92.8753 49.5224C92.8238 50.2208 92.3847 50.9394 91.7208 51.202C91.43 51.3165 91.5413 51.7845 91.8551 51.6853Z" fill="black"/>
<path d="M87.9917 82.0414C87.8463 82.906 88.023 83.6309 88.1977 84.4816C88.4044 85.4873 88.6145 86.4922 88.8275 87.4958C89.2304 89.3919 89.65 91.2839 90.0905 93.1716C90.9714 96.9471 91.844 100.725 92.7292 104.499C94.4876 111.994 96.3435 119.468 98.2626 126.924C99.353 131.16 100.318 135.491 101.674 139.649C101.952 140.503 103.215 140.158 103.016 139.278C102.161 135.504 100.99 131.783 100.005 128.039C99.0322 124.344 98.0706 120.645 97.1694 116.932C95.3526 109.45 93.5802 101.948 92.0618 94.3987C91.645 92.328 91.2393 90.2551 90.8114 88.1872C90.5922 87.1257 90.3757 86.0634 90.1572 85.0019C89.9394 83.9445 89.8546 82.7957 89.2652 81.8738C88.9708 81.4164 88.0975 81.4108 87.9917 82.0414Z" fill="black"/>
<path d="M91.5963 81.4813C91.272 82.3648 91.4669 83.1616 91.7153 84.0486C91.9811 84.9984 92.2845 85.937 92.5454 86.8889C93.0659 88.792 93.5913 90.6937 94.1167 92.5947C95.1688 96.3989 96.1743 100.212 97.1485 104.037C99.1109 111.742 101.005 119.466 102.93 127.18C103.465 129.32 103.999 131.46 104.532 133.6C104.798 134.667 105.117 135.735 105.296 136.82C105.493 138.008 105.368 139.01 105.852 140.133C106.168 140.865 107.415 140.497 107.352 139.725C107.318 139.307 107.291 138.873 107.145 138.477C106.998 138.079 106.717 137.765 106.557 137.375C106.185 136.465 105.977 135.483 105.74 134.532C105.248 132.561 104.756 130.589 104.265 128.618C103.296 124.732 102.329 120.846 101.36 116.96C99.4511 109.299 97.4965 101.649 95.761 93.9468C95.276 91.793 94.8035 89.6364 94.3178 87.4832C94.0617 86.3491 93.791 85.2184 93.5864 84.0737C93.4006 83.0324 93.2002 81.9988 92.3861 81.2732C92.1077 81.0232 91.7215 81.1391 91.5963 81.4813Z" fill="black"/>
<path d="M109.831 134.082C112.061 133.758 114.346 133.504 116.6 133.692C117.729 133.787 118.867 134.002 119.923 134.427C120.674 134.73 121.613 135.16 122.023 135.905C122.662 137.067 121.382 138.249 120.58 138.92C119.452 139.864 118.144 140.609 116.832 141.262C115.073 142.138 113.19 142.767 111.34 143.414C108.902 144.267 106.426 144.938 103.909 145.507C101.384 146.078 98.836 146.433 96.253 146.582C94.2572 146.697 91.8517 147.016 89.9353 146.277C88.9137 145.883 88.1038 145.074 88.3738 143.892C88.7008 142.458 90.0278 141.656 91.1948 140.934C92.2998 140.25 93.4563 139.667 94.649 139.156C95.9211 138.61 97.2675 138.247 98.5152 137.653C98.676 137.577 98.5973 137.308 98.4248 137.318C95.8355 137.458 93.1508 138.947 91.0229 140.343C89.9123 141.071 88.975 141.895 88.037 142.826C87.323 143.534 86.6912 144.682 86.9124 145.726C87.4044 148.051 89.9457 148.674 91.9839 148.79C94.9844 148.961 98.0107 148.616 100.951 148.033C106.408 146.952 111.723 144.876 116.642 142.284C118.18 141.473 119.723 140.652 121.072 139.541C122.027 138.754 123.206 137.563 122.969 136.194C122.626 134.213 119.857 133.409 118.215 133.109C115.388 132.591 112.457 132.887 109.671 133.492C109.277 133.578 109.453 134.137 109.831 134.082Z" fill="black"/>
<path d="M30.1393 16.4132C27.3711 27.9631 24.8807 39.578 22.466 51.2076C21.8599 54.1262 21.2685 57.0454 20.6304 59.957C20.0465 62.6206 19.4773 65.2759 19.1454 67.9857C18.5066 73.1977 18.8434 78.6382 21.743 83.1714C22.9462 85.0529 24.5564 86.9273 26.4791 88.0964C28.5249 89.3396 30.8038 90.0512 33.1663 90.369C37.9635 91.015 42.591 89.422 45.9833 85.9705C49.059 82.8418 50.8954 78.6081 52.1208 74.4485C53.7352 68.9655 54.4485 63.2478 55.3099 57.6111C55.7664 54.6206 56.0837 51.6134 56.5646 48.627C57.0433 45.6568 57.6724 42.7103 58.1978 39.7477C59.2353 33.8973 60.222 27.9869 61.6068 22.2077C61.9554 20.7544 62.3854 19.3031 62.6721 17.8365C62.8336 17.0117 62.327 16.3881 61.5121 16.3078C56.4665 15.8105 51.5057 14.9745 46.5421 13.9451C41.6182 12.9234 36.6964 11.8527 31.8608 10.4657C31.4691 10.3533 31.0056 10.6019 30.9089 11.0084C30.6981 11.8918 30.5102 12.8158 30.1525 13.6539C29.9521 14.1239 30.5241 14.721 30.9298 14.2559C31.673 13.4032 32.2102 12.5483 32.4015 11.4218C32.0842 11.6027 31.7669 11.7836 31.4496 11.9645C36.4222 13.0407 41.3628 14.2587 46.3382 15.3286C51.3046 16.3971 56.2598 17.465 61.192 18.6809C60.8977 18.2926 60.6034 17.905 60.309 17.5167C59.9305 20.364 59.8198 23.2476 59.4399 26.0998C59.0585 28.9611 58.6869 31.8231 58.2952 34.683C57.9062 37.5241 57.4093 40.3505 57.0259 43.1929C56.6376 46.0695 56.2883 48.9525 55.6892 51.7956C54.5354 57.2682 53.7241 62.8008 52.7213 68.3013C51.8814 72.9051 50.7875 77.6807 48.2407 81.6755C45.7022 85.6577 41.8033 88.4973 37.0005 88.8158C32.38 89.1224 28.2855 86.8498 25.3065 83.4089C22.1494 79.7619 21.3415 74.876 21.489 70.1835C21.6567 64.8352 22.633 59.4381 23.5203 54.1715C25.6412 41.5894 28.1777 29.0917 30.936 16.6353C31.0509 16.115 30.2638 15.8922 30.1393 16.4132Z" fill="black"/>
<path d="M27.6293 47.1025C25.5953 53.5709 24.516 60.3565 23.9531 67.1078C23.4667 72.9428 23.8348 79.2437 27.9292 83.7979C29.7329 85.8043 32.2443 87.3059 34.9386 87.6439C37.903 88.0161 40.6795 86.9022 42.6383 84.6583C44.4991 82.5268 45.6806 79.9064 46.6444 77.2686C47.7028 74.371 48.398 71.3386 48.9094 68.2999C50.0785 61.3573 50.5336 54.2141 52.6893 47.4789C52.8118 47.0955 52.4778 46.6394 52.0707 46.6632C48.288 46.8832 44.5158 47.3022 40.7352 47.5641C36.9518 47.826 33.1663 48.0551 29.3773 48.2255C28.5416 48.2632 28.5353 49.5678 29.3773 49.5349C36.9838 49.2409 44.6918 48.9525 52.2412 47.9287C51.9782 47.6647 51.7144 47.4 51.4514 47.136C50.1154 52.7643 49.3583 58.5016 48.32 64.1857C47.3117 69.71 46 75.4591 43.2208 80.3911C42.0065 82.5456 40.2696 84.6394 37.7743 85.2645C35.2803 85.8888 32.5184 84.895 30.5881 83.2922C26.3009 79.7311 24.8737 73.9296 24.96 68.566C25.0755 61.3894 26.6551 54.2407 28.2368 47.2708C28.3273 46.8741 27.7518 46.7135 27.6293 47.1025Z" fill="black"/>
<path d="M36.5844 77.7777C35.8962 77.3482 35.4 76.6107 35.2915 75.7985C35.1912 75.0519 35.4793 74.3319 36.0367 73.8179C36.5844 73.313 37.3136 73.1048 38.0136 73.3514C38.6608 73.579 39.2342 74.2376 39.2899 74.9116C39.3281 75.369 39.1806 75.8565 38.889 76.2127C38.7568 76.374 38.6128 76.4648 38.4555 76.5751C38.189 76.7616 37.9329 76.9439 37.688 77.159C36.972 77.7882 37.9225 79.0523 38.7158 78.4957C39.0435 78.2659 39.2815 78.0257 39.5139 77.6981C39.6844 77.4579 39.8083 77.1939 39.953 76.939C40.2599 76.3998 40.4923 75.8271 40.5382 75.2028C40.6252 74.0288 39.88 72.8869 38.8696 72.3408C36.6324 71.1312 33.9477 73.0538 33.9985 75.515C34.0264 76.8789 34.8043 78.15 35.9581 78.8526C36.6428 79.2688 37.2607 78.2003 36.5844 77.7777Z" fill="black"/>
<path d="M41.0852 69.1317C40.9773 69.0856 40.8841 69.0235 40.7852 68.962C40.7407 68.9348 40.6962 68.9082 40.6537 68.8789C40.7108 68.9187 40.6586 68.8838 40.6475 68.874C40.6182 68.8482 40.589 68.823 40.5612 68.7951C40.5187 68.7539 40.4805 68.7092 40.4415 68.6652C40.4199 68.64 40.3976 68.6163 40.3768 68.5905C40.3886 68.6051 40.4206 68.6568 40.3754 68.5863C40.3469 68.5416 40.3169 68.4983 40.2905 68.4522C40.2752 68.4256 40.1965 68.2601 40.232 68.3453C40.1861 68.2343 40.1583 68.119 40.1332 68.0017C40.1283 67.9794 40.1283 67.9158 40.1332 68.0052C40.1318 67.9787 40.1283 67.9528 40.127 67.9263C40.1235 67.8606 40.1277 67.795 40.1291 67.7293C40.1318 67.6092 40.1103 67.7838 40.1298 67.7147C40.1367 67.6895 40.1395 67.663 40.145 67.6372C40.1583 67.5792 40.1771 67.5226 40.1965 67.4661C40.1666 67.5534 40.2167 67.4255 40.2327 67.3962C40.264 67.3389 40.2995 67.2831 40.3385 67.2307C40.278 67.3131 40.3893 67.1776 40.4053 67.1616C40.4464 67.119 40.4902 67.0806 40.5354 67.0421C40.4631 67.1029 40.5716 67.0177 40.5995 66.9995C40.6551 66.9639 40.7122 66.9311 40.7713 66.9018C40.7713 66.9018 40.8896 66.8494 40.8235 66.8766C40.7672 66.8997 40.8458 66.8689 40.8597 66.8647C40.9161 66.8459 40.9731 66.827 41.0309 66.8131C41.0824 66.7998 41.1346 66.7921 41.1868 66.7809C41.09 66.8012 41.1534 66.7844 41.1777 66.783C41.2174 66.7809 41.2563 66.7767 41.2967 66.776C41.3565 66.7747 41.415 66.7781 41.4748 66.7802C41.5041 66.7816 41.5917 66.7984 41.4839 66.7788C41.5096 66.7837 41.5354 66.7879 41.5611 66.7935C41.6126 66.8047 41.6634 66.818 41.7135 66.834C41.7386 66.8424 41.7636 66.8515 41.788 66.8599C41.6836 66.8242 41.7935 66.8627 41.8172 66.8752C41.8729 66.9039 41.9244 66.9374 41.9779 66.9695C41.9995 66.9828 42.0719 67.0407 41.9954 66.9786C42.0169 66.996 42.0378 67.0135 42.058 67.0317C42.099 67.068 42.138 67.1071 42.1749 67.1476C42.1937 67.1678 42.2111 67.1888 42.2292 67.2097C42.3036 67.2929 42.1985 67.1546 42.2521 67.2412C42.2883 67.2998 42.3273 67.3564 42.36 67.4179C42.3767 67.4486 42.3913 67.4793 42.4066 67.5107C42.4275 67.5534 42.4372 67.5911 42.4143 67.5254C42.4616 67.6574 42.4978 67.7894 42.5228 67.9277C42.5026 67.8166 42.5207 67.9088 42.5228 67.9389C42.5249 67.9808 42.5284 68.022 42.5291 68.0639C42.5305 68.1309 42.5145 68.2064 42.5221 68.272C42.5214 68.279 42.5207 68.286 42.52 68.293C42.566 68.147 42.575 68.1058 42.5472 68.1679C42.5242 68.17 42.4226 68.4543 42.4776 68.3237C42.5082 68.2503 42.4685 68.3335 42.4651 68.3502C42.4567 68.3684 42.447 68.3865 42.4379 68.4047C42.4936 68.3411 42.4998 68.3314 42.456 68.3754C42.138 68.6813 42.2646 69.2183 42.6557 69.3838C43.0517 69.5514 43.5207 69.2595 43.5144 68.8153C43.5123 68.6771 43.4977 68.9571 43.5068 68.8119C43.5109 68.7406 43.5276 68.6701 43.5353 68.5988C43.5436 68.5213 43.536 68.4529 43.5318 68.3754C43.5241 68.2231 43.5422 68.0723 43.5262 67.9186C43.488 67.5589 43.3878 67.2132 43.2062 66.899C42.8436 66.2711 42.2159 65.8688 41.4943 65.8179C40.8548 65.7732 40.1673 66.042 39.7317 66.5142C39.262 67.0233 39.0985 67.7328 39.294 68.3991C39.5076 69.1233 40.1165 69.7882 40.9147 69.7624C41.0636 69.7575 41.1993 69.6604 41.2397 69.5137C41.2758 69.3824 41.2202 69.1897 41.0852 69.1317Z" fill="black"/>
<path d="M31.3 58.3709C30.68 58.1258 30.2875 57.5063 30.1685 56.868C30.0544 56.2583 30.2618 55.6207 30.7189 55.2624C30.9889 55.0508 31.252 54.9509 31.5874 54.8944C31.8504 54.8497 32.1601 54.8727 32.451 54.9635C32.4927 54.9768 32.5337 54.9922 32.5755 55.0068C32.7049 55.0522 32.5045 54.9649 32.6249 55.0285C32.6896 55.0627 32.7543 55.0948 32.8163 55.1332C32.8539 55.1563 32.8893 55.1814 32.9255 55.2066C32.8427 55.1486 32.9561 55.2324 32.9645 55.2394C33.0341 55.3008 33.0967 55.3679 33.1579 55.4377C33.2094 55.4964 33.096 55.3393 33.1642 55.4454C33.1858 55.4789 33.208 55.5111 33.2282 55.5446C33.2484 55.5788 33.2672 55.613 33.2853 55.6486C33.2964 55.6703 33.3451 55.7918 33.2985 55.6703C33.3222 55.7324 33.3437 55.7946 33.3618 55.8588C33.3723 55.8973 33.382 55.9364 33.3903 55.9755C33.3973 56.0062 33.4175 56.1822 33.4036 56.0321C33.4105 56.1117 33.4168 56.1913 33.4168 56.2716C33.4168 56.3114 33.4154 56.3519 33.4133 56.3917C33.4112 56.4252 33.3848 56.6026 33.4119 56.4448C33.3987 56.523 33.3841 56.5998 33.3632 56.6767C33.3528 56.7144 33.3416 56.7521 33.3291 56.7891C33.3208 56.8135 33.3117 56.838 33.3027 56.8624C33.3361 56.7891 33.3396 56.7793 33.3124 56.8338C33.2992 56.8554 33.2874 56.8785 33.2748 56.9002C33.2616 56.9218 33.2484 56.9434 33.2345 56.9644C33.2887 56.8967 33.2957 56.8855 33.254 56.9309C33.2268 56.9539 33.1997 56.9812 33.174 57.0063C33.0863 57.0915 33.302 56.9274 33.1753 57.0056C33.1078 57.0468 33.0396 57.0817 32.9707 57.1201C33.1538 57.0175 33.0689 57.081 33.0083 57.0978C32.9603 57.1118 32.9137 57.1236 32.8643 57.1306C32.3563 57.2046 32.1698 57.8828 32.3995 58.2767C32.4983 58.4464 32.6757 58.5833 32.8643 58.6349C33.1552 58.7153 33.3973 58.6133 33.6207 58.4345C33.588 58.4603 33.4196 58.5902 33.5998 58.4499C33.6395 58.4191 33.6798 58.3891 33.7174 58.3556C33.7445 58.3318 33.771 58.3067 33.796 58.2809C33.8858 58.1866 33.9665 58.0783 34.0382 57.9701C34.082 57.9044 34.1189 57.8346 34.1509 57.7627C34.185 57.6872 34.2198 57.6097 34.247 57.5308C34.2484 57.5259 34.2671 57.4819 34.2651 57.4798C34.2804 57.4938 34.1878 57.6761 34.2978 57.3932C34.4376 57.0321 34.5142 56.639 34.4891 56.2513C34.4613 55.8239 34.3465 55.3881 34.1043 55.0306C33.8378 54.6353 33.4648 54.3601 33.0264 54.1834C32.2248 53.8608 31.22 53.9809 30.5067 54.4663C29.767 54.9698 29.3808 55.8225 29.4887 56.7144C29.6049 57.6761 30.2263 58.5595 31.1671 58.8556C31.4802 58.9541 31.5922 58.4869 31.3 58.3709Z" fill="black"/>
<path d="M33.7585 89.0448C33.2769 89.7984 33.1823 90.6379 33.0048 91.5025C32.7982 92.5082 32.5922 93.5145 32.3855 94.5202C31.9944 96.4212 31.611 98.3229 31.2311 100.227C30.483 103.977 29.6724 107.712 28.8269 111.442C27.1241 118.953 25.3142 126.437 23.3658 133.888C22.2712 138.073 20.963 142.232 20.0069 146.45C19.8079 147.329 21.0701 147.677 21.3492 146.822C22.5475 143.148 23.4047 139.327 24.3748 135.587C25.3483 131.833 26.2835 128.069 27.2271 124.307C29.1004 116.839 30.8177 109.337 32.5811 101.842C33.0772 99.733 33.5643 97.6231 34.0166 95.5042C34.2428 94.4448 34.4682 93.3846 34.6874 92.3238C34.9031 91.2762 35.2107 90.2824 35.0312 89.2132C34.9247 88.5804 34.0535 88.5839 33.7585 89.0448Z" fill="black"/>
<path d="M30.6354 88.4421C29.9438 89.0595 29.7315 89.8417 29.5367 90.7294C29.3244 91.6945 29.1519 92.6681 28.9341 93.6333C28.4866 95.6167 28.0441 97.6015 27.6022 99.5863C26.7317 103.499 25.8104 107.396 24.8591 111.289C22.9852 118.957 21.0444 126.609 19.1357 134.268C18.6026 136.408 18.0689 138.549 17.5352 140.689C17.2541 141.816 16.9987 142.949 16.6299 144.05C16.4545 144.573 16.2019 144.951 15.9653 145.436C15.7447 145.889 15.7099 146.403 15.6696 146.896C15.607 147.668 16.8525 148.036 17.1692 147.304C17.3355 146.92 17.5178 146.538 17.5776 146.118C17.6549 145.584 17.5651 145.052 17.6382 144.51C17.7697 143.53 18.0397 142.575 18.2791 141.617C18.7564 139.702 19.2345 137.787 19.7125 135.872C20.6686 132.043 21.6241 128.214 22.5802 124.385C24.5056 116.671 26.3817 108.943 28.488 101.276C29.0718 99.1505 29.6654 97.0267 30.2478 94.9001C30.5394 93.8358 30.8282 92.7735 31.1559 91.7197C31.4733 90.7007 31.8066 89.6902 31.4259 88.6523C31.3007 88.3087 30.9152 88.1928 30.6354 88.4421Z" fill="black"/>
<path d="M13.3538 140.663C10.8598 140.121 8.27675 139.836 5.7299 140.142C3.94571 140.355 1.43574 140.896 0.378731 142.55C-1.38527 145.312 3.48435 147.904 5.30194 148.883C9.8981 151.361 14.8074 153.477 19.8844 154.719C22.8167 155.436 25.8256 155.925 28.8471 155.983C30.9639 156.024 34.0667 156.138 35.5002 154.219C37.2705 151.849 34.8252 149.541 32.9854 148.194C31.7008 147.253 30.3153 146.436 28.8693 145.771C27.5354 145.157 26.0741 144.569 24.5982 144.488C24.4256 144.479 24.3469 144.748 24.5077 144.824C25.516 145.303 26.5953 145.599 27.6321 146.014C28.8067 146.486 29.957 147.019 31.0571 147.647C32.0814 148.23 33.2693 148.871 34.0285 149.796C34.7382 150.662 35.0514 152.062 34.0883 152.874C32.6005 154.13 30.1546 153.88 28.3669 153.828C25.8959 153.757 23.4333 153.521 21.0019 153.067C16.2562 152.179 11.5341 150.773 7.10074 148.85C5.75565 148.266 4.45091 147.549 3.25055 146.704C2.34314 146.065 0.928464 145.063 0.827564 143.834C0.670995 141.916 4.11342 141.184 5.42442 140.978C7.98658 140.575 10.6434 140.881 13.1909 141.251C13.5688 141.307 13.7455 140.748 13.3538 140.663Z" fill="black"/>
<path d="M62.3284 4.58951C60.8017 4.18863 59.1629 4.53433 57.8526 5.39684C57.195 5.82984 56.6251 6.38297 56.1826 7.03526C55.9669 7.35303 55.8179 7.68965 55.653 8.03395C55.486 8.38105 55.2035 8.78751 55.4811 9.16604C55.5542 9.26591 55.6843 9.32318 55.8012 9.24985C56.1283 9.04522 56.1276 8.70231 56.2007 8.36639C56.2744 8.03046 56.4741 7.70222 56.6565 7.41448C57.0385 6.81387 57.5541 6.29008 58.1372 5.88502C59.3181 5.06581 60.7961 4.69706 62.2073 5.03089C62.4926 5.09863 62.6137 4.66423 62.3284 4.58951Z" fill="black"/>
<path d="M57.7239 2.40984C57.0531 2.43707 56.3948 2.65706 55.8416 3.03978C55.5681 3.22904 55.3183 3.45393 55.0921 3.69836C54.9815 3.81709 54.8841 3.94769 54.7887 4.06641C54.6544 4.23333 54.5661 4.39396 54.4965 4.59719C54.3615 4.99317 54.9808 5.25716 55.1729 4.88352C55.3169 4.60277 55.4004 4.35555 55.5772 4.09994C55.7302 3.87785 55.9334 3.68649 56.1505 3.52865C56.6112 3.19273 57.154 2.97483 57.7246 2.93432C58.0558 2.90988 58.0621 2.39587 57.7239 2.40984Z" fill="black"/>
<path d="M56.0629 0.0122712C55.5083 -0.0373143 54.9606 0.0639506 54.4596 0.305593C54.2147 0.42362 53.9899 0.57168 53.7763 0.738595C53.6726 0.819608 53.5731 0.905508 53.4792 0.998394C53.3309 1.14436 53.214 1.26937 53.2551 1.49495C53.2551 1.44187 53.2551 1.38879 53.2551 1.33572C53.2168 1.46562 53.1611 1.64021 53.2899 1.73938C53.4186 1.83925 53.5731 1.7331 53.6949 1.67443C53.6448 1.6884 53.594 1.70167 53.5439 1.71564C53.7241 1.72472 53.8194 1.59831 53.9322 1.48238C54.0143 1.39857 54.1012 1.31826 54.1917 1.24353C54.365 1.10036 54.5647 0.978142 54.7672 0.875479C55.168 0.672946 55.6147 0.522791 56.0629 0.47111C56.353 0.436889 56.3593 0.0388099 56.0629 0.0122712Z" fill="black"/>
<path d="M53.7652 79.7737C53.4019 81.6308 52.6497 83.3558 51.5523 84.895C51.0221 85.6381 50.4069 86.3183 49.734 86.9329C49.0242 87.581 48.2226 88.0832 47.4739 88.6782C46.9408 89.1021 47.6193 89.8298 48.1593 89.5693C49.0194 89.1538 49.7939 88.4379 50.4591 87.7591C51.155 87.0489 51.7799 86.2611 52.3212 85.4265C53.3894 83.7818 54.1249 81.8996 54.4582 79.9651C54.5348 79.5146 53.8549 79.3156 53.7652 79.7737Z" fill="black"/>
<path d="M67.912 70.1974C68.3768 72.3701 69.1785 74.4883 70.2696 76.4222C70.7991 77.3615 71.4108 78.2478 72.0802 79.0914C72.4316 79.5335 72.799 79.9623 73.1845 80.375C73.561 80.7773 73.9701 81.2669 74.4649 81.5204C74.8337 81.709 75.35 81.3018 75.078 80.9051C74.7899 80.4847 74.3626 80.1641 73.998 79.8108C73.6146 79.4392 73.2451 79.0537 72.8916 78.6535C72.17 77.835 71.52 76.953 70.9355 76.0311C69.7651 74.1859 68.9293 72.1823 68.4248 70.055C68.3462 69.7197 67.8403 69.8622 67.912 70.1974Z" fill="black"/>
<path d="M97.4749 18.8583C97.6586 19.8933 97.8444 20.9283 98.0233 21.964C98.1109 22.4724 98.1986 22.9808 98.287 23.4893C98.3315 23.7463 98.3795 23.9921 98.4519 24.2428C98.5312 24.518 98.5987 24.6577 98.8165 24.8428C98.8952 24.9098 99.0267 24.9119 99.081 24.8085C99.2111 24.562 99.2361 24.4216 99.2076 24.1402C99.1798 23.8657 99.1359 23.6017 99.0775 23.3321C98.9696 22.8293 98.8618 22.3265 98.7539 21.8236C98.5298 20.7788 98.3127 19.7333 98.0928 18.6879C98.008 18.2786 97.4033 18.4553 97.4749 18.8583Z" fill="black"/>
<path d="M24.9162 24.3867C24.7046 25.0565 24.4931 25.7255 24.2822 26.3953C24.1785 26.7242 24.0728 27.0517 23.9559 27.3765C23.8988 27.5364 23.8522 27.7096 23.7812 27.864C23.6991 28.0428 23.6295 28.1894 23.5912 28.3885C23.5495 28.6064 23.6337 28.8291 23.8494 28.9164C24.0345 28.9912 24.317 28.9409 24.4061 28.7335C24.4513 28.628 24.5153 28.5156 24.546 28.4059C24.5675 28.3277 24.5571 28.2432 24.5675 28.165C24.5926 27.9862 24.6608 27.8011 24.706 27.6265C24.7916 27.2927 24.8862 26.9624 24.985 26.632C25.1896 25.9469 25.3942 25.2618 25.5988 24.5767C25.7289 24.136 25.0532 23.953 24.9162 24.3867Z" fill="black"/>
<path d="M54.9836 127.757C58.3439 130.693 60.9026 134.488 62.1704 138.788C62.4884 139.868 62.8802 141.126 62.6116 142.249C62.4356 142.986 61.636 144.115 60.7196 143.74C59.4615 143.224 60.7238 141.579 61.293 141.079C62.2825 140.209 63.359 139.423 64.3833 138.595C67.9913 135.675 72.1581 132.925 74.3355 128.67C76.2414 124.945 76.2936 120.189 72.8686 117.331C71.3356 116.052 69.4359 115.509 67.475 115.961C65.5892 116.395 64.0235 117.716 63.4105 119.568C63.9943 119.647 64.5781 119.726 65.1619 119.806C65.0506 117.374 63.9999 115.01 62.1642 113.392C61.1719 112.517 59.9527 111.779 58.6292 111.587C57.3349 111.398 56.1102 111.874 55.0657 112.618C53.2391 113.919 51.9636 115.93 51.4785 118.119C51.0172 120.201 51.0777 122.784 52.7471 124.313C53.1145 124.649 53.5967 124.308 53.5285 123.856C53.278 122.19 52.864 120.525 53.1841 118.832C53.4993 117.162 54.3191 115.583 55.621 114.477C56.3885 113.826 57.3996 113.224 58.4399 113.388C59.4183 113.541 60.3717 114.168 61.0863 114.831C62.4766 116.123 63.3151 117.904 63.3791 119.806C63.4139 120.835 64.8029 120.995 65.1306 120.044C65.7033 118.383 67.571 117.501 69.248 117.659C71.1505 117.839 72.5012 119.394 73.1323 121.105C74.8434 125.747 71.2549 130.072 68.0867 133.002C66.1375 134.805 64.1314 136.549 62.1357 138.299C60.7091 139.551 58.5339 141.069 58.8275 143.244C59.0878 145.172 61.1649 145.723 62.6402 144.689C64.3972 143.457 63.885 141.078 63.3019 139.352C61.7453 134.747 59.0008 130.586 55.2682 127.472C55.0713 127.307 54.7867 127.585 54.9836 127.757Z" fill="black"/>
</svg>
