<svg width="133" height="77" viewBox="0 0 133 77" fill="none" xmlns="http://www.w3.org/2000/svg">
<path fill-rule="evenodd" clip-rule="evenodd" d="M131.702 32.845C130.845 25.0653 126.956 18.5708 121.532 13.4815C115.192 7.53532 106.736 3.49983 98.5286 1.55491C89.6939 -0.615391 80.4534 -0.512222 71.6694 1.85478C63.4017 4.2024 56.5477 8.68342 52.401 14.7495C51.1481 16.7102 50.1736 18.8353 49.5052 21.0641C48.0144 21.3468 46.6008 21.6467 45.2728 21.9209C43.6535 22.2979 42.1285 22.692 40.7406 23.0861C40.1751 23.2403 39.6182 23.4117 39.0271 23.5745C31.1878 25.9307 20.2984 30.2318 12.0393 36.4264C3.60031 42.8438 -2.13137 51.1461 0.755893 61.4362L0.86727 61.8132C3.42896 70.3297 10.3344 74.5451 18.6877 76.1388C30.7337 78.5035 45.8297 75.5304 54.8599 72.8744L55.2111 72.7716C59.63 71.4505 63.9598 69.8479 68.1738 67.9735C70.0644 68.9425 72.0096 69.8007 73.9997 70.5439C76.0967 71.3081 78.2365 71.9489 80.4082 72.4631C88.3008 74.3836 96.5221 74.5212 104.474 72.8658C112.117 71.1522 118.757 67.785 123.434 63.0213C126.861 59.3731 129.295 54.9068 130.503 50.0494C131.966 44.4386 132.372 38.6046 131.702 32.845ZM26.1843 47.0163C32.0469 43.8064 38.2478 41.2575 44.6731 39.4166C45.1957 39.2624 45.804 39.091 46.498 38.9111L47.1234 38.7397C47.1614 41.3473 47.5358 43.9391 48.2372 46.4509C48.6289 47.7445 49.1157 49.0075 49.6936 50.2293C50.0963 51.0861 50.5504 51.9429 51.0473 52.7226C50.2677 52.9625 49.4795 53.211 48.6827 53.4337C41.6798 55.5161 34.4675 56.8149 27.1782 57.3064C21.5921 57.6149 16.8286 57.2293 13.3587 56.1669C17.2363 52.5946 21.5448 49.5206 26.1843 47.0163ZM53.2406 52.02C52.6826 51.1332 52.1763 50.2149 51.7242 49.2697C51.186 48.1626 50.7307 47.017 50.3619 45.8425C49.1796 41.987 49.0254 36.1608 49.7365 30.4631C49.9241 32.806 50.4315 35.1121 51.2444 37.3175C53.101 42.0485 56.1004 46.2461 59.9747 49.5353C57.8157 50.4093 55.571 51.2403 53.2406 52.02ZM54.5771 70.6467L54.2344 70.7495C45.4356 73.3199 30.7337 76.2416 19.1075 73.9625C17.6094 73.6712 16.1347 73.2703 14.6953 72.763L11.0198 64.9576C11.0064 64.9127 10.9834 64.8712 10.9525 64.836C10.9216 64.8008 10.8835 64.7727 10.8407 64.7536C10.7979 64.7345 10.7515 64.7248 10.7047 64.7253C10.6578 64.7257 10.6116 64.7363 10.5692 64.7562C10.5268 64.7762 10.4893 64.8051 10.459 64.8409C10.4288 64.8767 10.4067 64.9186 10.3942 64.9637C10.3816 65.0089 10.379 65.0562 10.3864 65.1024C10.3938 65.1487 10.4112 65.1928 10.4372 65.2318L13.8642 72.446C12.869 72.0717 11.9013 71.628 10.9684 71.1179L6.28195 62.0531C6.24027 61.9789 6.17185 61.9234 6.09066 61.8979C6.00946 61.8724 5.9216 61.8789 5.84501 61.916C5.80666 61.935 5.77255 61.9615 5.74474 61.994C5.71693 62.0266 5.69599 62.0644 5.68318 62.1052C5.67037 62.146 5.66596 62.189 5.67021 62.2316C5.67447 62.2742 5.68729 62.3155 5.70793 62.3529L9.90602 70.4239C6.55811 68.2831 4.10359 64.997 3.00059 61.1791L2.89778 60.8364C2.61191 59.8277 2.41694 58.7955 2.31518 57.752C3.16523 58.789 4.19919 59.6603 5.36523 60.3224C7.36042 61.4227 9.50463 62.2279 11.7309 62.7128L15.6977 71.2807C15.7332 71.3589 15.7981 71.4198 15.8784 71.4503C15.9586 71.4808 16.0476 71.4783 16.126 71.4435C16.1648 71.426 16.1996 71.401 16.2284 71.3698C16.2572 71.3386 16.2795 71.3019 16.2939 71.262C16.3082 71.222 16.3144 71.1796 16.3121 71.1372C16.3098 71.0948 16.2989 71.0533 16.2803 71.0151L12.5277 62.8499C13.2074 62.9984 13.8842 63.1269 14.5582 63.2355C16.6832 63.5774 18.8315 63.755 20.9838 63.7667C25.6835 63.7287 30.3729 63.3219 35.0089 62.55C40.3449 61.6739 45.6234 60.4779 50.816 58.9686C53.232 58.2575 56.1193 57.255 59.2122 56.1326C60.7201 55.5672 62.2793 54.9417 63.8558 54.2734L66.0919 63.7581C66.1142 63.839 66.1669 63.9081 66.239 63.951C66.311 63.994 66.3969 64.0075 66.4786 63.9887C66.5604 63.9699 66.6317 63.9203 66.6778 63.8502C66.7239 63.7801 66.7411 63.6949 66.7259 63.6124L64.4555 53.9821C65.4493 53.5537 66.4432 53.1253 67.437 52.6541C67.5264 52.6191 67.6075 52.566 67.6753 52.4981C67.7431 52.4302 67.7961 52.349 67.8309 52.2595C67.8657 52.1701 67.8816 52.0745 67.8775 51.9786C67.8735 51.8827 67.8496 51.7887 67.8074 51.7025C67.7653 51.6164 67.7057 51.5399 67.6324 51.4779C67.5591 51.4159 67.4738 51.3698 67.3819 51.3425C67.2899 51.3152 67.1932 51.3072 67.098 51.3191C67.0028 51.331 66.9111 51.3625 66.8287 51.4117C64.0785 52.6883 61.3112 53.8279 58.6981 54.8389C55.6395 55.987 52.7865 56.938 50.3962 57.6406C45.2677 59.12 40.0549 60.2902 34.7861 61.1449C30.2256 61.9243 25.6103 62.3397 20.9838 62.3872C18.9032 62.377 16.8264 62.2051 14.7724 61.8731C11.7282 61.4789 8.77808 60.5477 6.0592 59.1228C4.16577 58.009 2.75213 56.5525 2.31518 54.7104C2.92348 48.2416 7.4557 42.7152 13.4016 38.2685C21.4208 32.2281 32.0274 28.0384 39.6953 25.7079L41.3403 25.2281C42.6854 24.8511 44.1762 24.4656 45.7783 24.0971C46.755 23.8658 47.7745 23.6516 48.8026 23.4374C48.6484 24.0372 48.5028 24.6455 48.3657 25.2624C47.3033 25.5023 46.2409 25.7422 45.1786 26.0078C43.8534 26.3791 42.5026 26.7532 41.1261 27.1302C34.7695 28.9376 28.5989 31.3446 22.6973 34.3187C17.197 37.1461 12.7676 40.2134 9.84605 43.2122C9.77423 43.3019 9.73838 43.4152 9.74548 43.5299C9.75258 43.6446 9.80211 43.7525 9.88444 43.8327C9.96676 43.9129 10.076 43.9596 10.1908 43.9637C10.3057 43.9678 10.4179 43.9289 10.5057 43.8548C13.3587 40.9246 17.7025 37.9172 23.1343 35.1326C28.9753 32.1896 35.0829 29.8084 41.3746 28.0212C42.7111 27.6357 44.0476 27.2673 45.4013 26.9331C46.3352 26.7018 47.2519 26.4876 48.1686 26.282C47.9287 27.4643 47.7317 28.6638 47.5775 29.8634C47.2963 32.0573 47.1447 34.266 47.1234 36.4778L45.9496 36.7862L44.0819 37.3089C37.4904 39.1839 31.1283 41.7875 25.1134 45.0714C21.2611 47.1793 17.6203 49.6525 14.2412 52.457L11.8508 45.1828C11.8235 45.1011 11.7648 45.0335 11.6877 44.995C11.6106 44.9564 11.5214 44.95 11.4396 44.9772C11.3599 45.0046 11.2938 45.0619 11.2555 45.137C11.2171 45.2121 11.2094 45.2992 11.234 45.3799L13.71 52.9025L12.7847 53.7593L10.1716 46.0482C10.1591 46.007 10.1383 45.9689 10.1105 45.936C10.0828 45.9031 10.0486 45.8763 10.0101 45.857C9.97168 45.8378 9.92969 45.8266 9.88675 45.8241C9.84381 45.8216 9.80081 45.8279 9.76037 45.8425C9.68021 45.8716 9.61467 45.931 9.57782 46.0079C9.54097 46.0848 9.53576 46.1731 9.56332 46.2538L12.2621 54.1963C11.7223 54.7018 11.1997 55.2073 10.6942 55.7214C9.95666 55.358 9.27327 54.8937 8.66373 54.3419C8.00102 53.7467 7.51242 52.9827 7.25008 52.1314C7.07639 51.5071 7.03553 50.8533 7.13014 50.2122C7.24581 49.451 7.48301 48.7133 7.83268 48.0274C7.87718 47.9454 7.9047 47.8553 7.9136 47.7625C7.9225 47.6696 7.9126 47.5759 7.88448 47.487C7.85636 47.3981 7.81061 47.3157 7.74995 47.2449C7.68929 47.174 7.61497 47.1161 7.53144 47.0746C7.4479 47.0332 7.35686 47.0089 7.26376 47.0034C7.17065 46.9979 7.07739 47.0112 6.98955 47.0426C6.90171 47.0739 6.82109 47.1227 6.75251 47.1859C6.68392 47.2491 6.62878 47.3255 6.59038 47.4105C6.16742 48.2334 5.87821 49.1184 5.73363 50.0323C5.61626 50.8634 5.67464 51.7098 5.90498 52.517C6.23735 53.6096 6.86253 54.5904 7.71273 55.3529C8.50492 56.057 9.40072 56.6349 10.3687 57.0665C10.4177 57.1878 10.4939 57.2963 10.5914 57.3836C10.7004 57.4975 10.8357 57.5828 10.9855 57.632C14.8323 59.2685 20.564 59.9025 27.3324 59.517C34.7894 59.0154 42.168 57.6908 49.3338 55.5671C56.5006 53.5488 63.4224 50.7443 69.973 47.2048C75.9703 43.9062 80.4768 40.3077 82.9185 36.9233C83.0087 36.8019 83.072 36.6628 83.1045 36.5151C83.137 36.3674 83.1379 36.2146 83.107 36.0665C83.6797 35.1881 84.1185 34.2295 84.4093 33.222C84.7239 32.1013 84.7239 30.9155 84.4093 29.7948C84.2577 29.2594 84.0297 28.7487 83.7325 28.2783C83.4188 27.7853 83.0414 27.3359 82.6101 26.9417C82.476 26.8156 82.2974 26.7479 82.1134 26.7535C81.9294 26.7591 81.7552 26.8376 81.6291 26.9717C81.503 27.1057 81.4353 27.2844 81.4409 27.4684C81.4466 27.6524 81.525 27.8266 81.6591 27.9527C82.0062 28.2664 82.3114 28.6235 82.5673 29.0151C82.8079 29.3848 82.9899 29.7894 83.107 30.2146C83.3508 31.0803 83.3508 31.9965 83.107 32.8621C82.8727 33.665 82.5235 34.4297 82.0704 35.1326C80.9823 34.8756 79.8599 34.6528 78.7033 34.4558L76.253 26.3591C76.2456 26.3131 76.2285 26.2693 76.2027 26.2306C76.177 26.1918 76.1433 26.1591 76.1038 26.1344C76.0643 26.1098 76.02 26.094 75.9739 26.0879C75.9278 26.0819 75.8809 26.0858 75.8364 26.0994C75.7919 26.113 75.7509 26.1359 75.716 26.1667C75.6812 26.1975 75.6533 26.2354 75.6343 26.2779C75.6153 26.3204 75.6057 26.3664 75.606 26.4129C75.6063 26.4594 75.6166 26.5054 75.6361 26.5476L77.9665 34.3272C75.0983 33.9018 72.2042 33.6756 69.3047 33.6504C64.7135 33.625 60.1282 33.9833 55.5967 34.7214C55.0402 32.9779 54.6923 31.1746 54.56 29.3493C55.3647 27.6503 56.3871 26.0633 57.6015 24.6283C61.4034 24.1247 65.2404 23.9356 69.0734 24.0629C70.3157 24.1228 71.4894 24.2171 72.6032 24.3542C73.5971 27.8585 74.2311 29.7691 74.6423 30.7716C74.3511 28.6334 73.9015 26.5199 73.2972 24.4484C75.0044 24.6924 76.6814 25.1145 78.3006 25.7079C78.3567 25.7311 78.4169 25.7426 78.4776 25.7417C78.5383 25.7408 78.5981 25.7275 78.6535 25.7026C78.7088 25.6777 78.7585 25.6418 78.7995 25.5971C78.8405 25.5523 78.8719 25.4996 78.8918 25.4423C78.9139 25.3855 78.9245 25.3249 78.9231 25.2639C78.9218 25.203 78.9083 25.143 78.8836 25.0872C78.859 25.0315 78.8235 24.9812 78.7793 24.9392C78.7352 24.8972 78.6831 24.8644 78.6262 24.8425C75.5612 23.7833 72.3498 23.208 69.1077 23.1375C65.5747 23.0135 62.0375 23.1595 58.5268 23.5745C59.1094 22.9576 59.7348 22.3664 60.3945 21.7924C67.8054 21.2269 75.3962 21.6553 81.3935 24.2257C84.2641 25.4089 86.7811 27.3123 88.7016 29.752C89.1223 31.3178 88.9388 32.9846 88.1876 34.4215C86.9934 36.7598 85.3952 38.8685 83.4669 40.6504C81.1797 42.8705 78.6672 44.8461 75.9703 46.5451C75.8334 46.6498 75.7404 46.8017 75.7093 46.9712C75.6783 47.1408 75.7114 47.3158 75.8023 47.4622C75.8931 47.6086 76.0352 47.716 76.2009 47.7635C76.3665 47.8109 76.5439 47.7951 76.6985 47.7189C79.4721 45.9664 82.0562 43.9306 84.4093 41.6443C86.4647 39.7441 88.1649 37.4926 89.4299 34.9955C89.8416 34.135 90.1301 33.2206 90.2866 32.2795C90.7385 33.1951 91.1056 34.1501 91.3833 35.1326V35.2012C93.311 41.7385 91.2719 47.4448 87.2023 52.337L85.4888 42.4839C85.4726 42.4011 85.4248 42.3278 85.3556 42.2795C85.2864 42.2312 85.2012 42.2117 85.1179 42.225C85.0345 42.2384 84.9597 42.2835 84.909 42.351C84.8583 42.4185 84.8358 42.503 84.8462 42.5867L86.6111 52.9711C86.02 53.6394 85.3946 54.282 84.7349 54.916L82.593 45.2428C82.5849 45.2007 82.5684 45.1606 82.5444 45.1251C82.5204 45.0896 82.4894 45.0593 82.4534 45.036C82.4173 45.0128 82.377 44.9971 82.3347 44.99C82.2924 44.9828 82.2491 44.9843 82.2074 44.9943C82.1246 45.0147 82.0528 45.0661 82.0066 45.1377C81.9604 45.2094 81.9434 45.296 81.959 45.3799L84.1865 55.4301C83.1087 56.4143 81.9821 57.3436 80.8109 58.2146C75.973 61.6904 70.7421 64.5835 65.2266 66.834L62.6563 56.8695C62.6347 56.7854 62.5806 56.7133 62.5059 56.6691C62.4312 56.625 62.342 56.6123 62.2579 56.6339C62.1739 56.6554 62.1018 56.7095 62.0576 56.7843C62.0134 56.859 62.0007 56.9482 62.0223 57.0323L64.5926 67.0825C61.0028 68.5476 57.5329 69.7642 54.5771 70.6467ZM57.5415 39.2367C57.1046 38.4484 56.6847 37.6516 56.3678 36.8462C60.6489 36.1667 64.9786 35.84 69.3133 35.8695C72.9174 35.8877 76.5117 36.2463 80.0484 36.9405C77.6324 39.6993 73.7941 42.5696 68.9106 45.2685C67.5227 46.0339 66.0691 46.7793 64.5497 47.5047C61.7179 45.2105 59.3408 42.4062 57.5415 39.2367ZM125.499 27.4215C127.058 31.4545 127.28 35.8817 126.133 40.0506C125.756 37.7506 125.049 35.517 124.034 33.419L125.499 27.4215ZM124.154 42.4239C121.447 48.2844 115.852 52.7654 108.733 55.2758C101.368 57.7864 93.4804 58.3559 85.8315 56.9295C92.3343 50.9319 96.1811 43.4864 93.5423 34.5329V34.4558C91.6746 28.3725 87.5621 24.4998 82.2503 22.1951C76.9384 19.8903 70.2557 19.1791 63.6673 19.3933C65.7398 18.0991 67.9494 17.0387 70.2557 16.2318C78.4111 13.536 87.1648 13.215 95.4957 15.3064C103.094 16.9925 110.107 20.668 115.818 25.9564C120.804 30.7716 123.846 36.5635 124.154 42.4325V42.4239ZM128.361 49.4239C127.247 53.9098 125.009 58.0381 121.858 61.419C117.48 65.8658 111.226 69.0616 104.003 70.6381C96.4372 72.213 88.6164 72.0931 81.1022 70.2869C81.7791 67.8022 83.4583 62.5757 83.4669 62.5157C83.4864 62.4735 83.4967 62.4276 83.497 62.3811C83.4973 62.3346 83.4877 62.2885 83.4687 62.2461C83.4497 62.2036 83.4218 62.1657 83.387 62.1349C83.3521 62.1041 83.3111 62.0811 83.2666 62.0675C83.2221 62.054 83.1752 62.0501 83.1291 62.0561C83.083 62.0622 83.0387 62.078 82.9992 62.1026C82.9597 62.1272 82.926 62.16 82.9003 62.1988C82.8745 62.2375 82.8574 62.2813 82.85 62.3272C82.85 62.3272 81.1365 67.5794 80.4768 70.1412C78.5391 69.6753 76.6285 69.1033 74.7537 68.4276C73.3829 67.9307 72.0463 67.3738 70.7698 66.774C74.1267 65.1766 77.3574 63.3263 80.434 61.2391C81.9133 61.6104 83.4212 61.9188 84.9576 62.1645L83.5354 68.3762C83.5264 68.4173 83.5256 68.4597 83.533 68.5011C83.5404 68.5425 83.5559 68.582 83.5785 68.6174C83.6012 68.6528 83.6306 68.6834 83.6651 68.7074C83.6996 68.7315 83.7385 68.7485 83.7796 68.7575C83.8206 68.7665 83.8631 68.7673 83.9045 68.7599C83.9458 68.7525 83.9854 68.737 84.0208 68.7143C84.0562 68.6917 84.0868 68.6623 84.1108 68.6278C84.1348 68.5933 84.1518 68.5544 84.1608 68.5133L85.6002 62.2416C90.6165 63.0028 95.7139 63.0662 100.748 62.4301C107.102 61.6839 113.198 59.4788 118.559 55.987C118.66 55.9175 118.73 55.8116 118.754 55.6917C118.778 55.5718 118.754 55.4472 118.688 55.3444C118.654 55.2934 118.611 55.2498 118.56 55.216C118.509 55.1823 118.452 55.1591 118.392 55.1479C118.332 55.1367 118.271 55.1377 118.211 55.1509C118.151 55.164 118.095 55.189 118.045 55.2244C112.801 58.6328 106.84 60.785 100.628 61.5133C95.6936 62.135 90.6976 62.0745 85.7801 61.3334C85.7706 61.2723 85.7425 61.2156 85.6995 61.1711C85.6566 61.1266 85.6009 61.0965 85.5402 61.0849C85.4697 61.0696 85.3961 61.0781 85.331 61.1091C85.2659 61.1401 85.2129 61.1919 85.1804 61.2563C83.9209 61.0506 82.6701 60.8022 81.4364 60.5194C81.6934 60.3395 81.959 60.1596 82.2074 59.9625C82.7043 59.5912 83.1927 59.2142 83.6725 58.8315C92.2395 60.7284 101.163 60.2364 109.469 57.4093C117.24 54.6247 123.349 49.6981 126.279 43.1351C126.356 42.9718 126.394 42.7929 126.39 42.6124V42.2612L126.57 41.8156C126.741 41.3529 126.887 40.8817 127.024 40.4105C128.259 36.0114 128.034 31.3303 126.382 27.0702C126.236 26.6761 126.065 26.2991 125.902 25.9135L126.005 25.4937C126.023 25.4098 126.008 25.322 125.964 25.2486C125.919 25.1752 125.848 25.1218 125.765 25.0996C125.695 25.0784 125.62 25.0784 125.551 25.0996C125.268 24.4998 124.951 23.8915 124.617 23.3003C124.629 23.2281 124.615 23.1539 124.577 23.0911C124.539 23.0284 124.48 22.981 124.411 22.9576C122.575 19.8663 120.245 17.0965 117.514 14.7581C117.422 14.6777 117.302 14.6371 117.18 14.6452C117.058 14.6532 116.944 14.7092 116.863 14.8009C116.779 14.8886 116.733 15.0052 116.733 15.1265C116.733 15.2478 116.779 15.3644 116.863 15.4521C119.629 17.8125 121.971 20.6292 123.786 23.7801L122.406 29.1351C122.385 29.218 122.398 29.3058 122.441 29.3795C122.484 29.4533 122.555 29.507 122.638 29.5292C122.679 29.5421 122.722 29.5462 122.765 29.5413C122.808 29.5364 122.849 29.5227 122.886 29.5009C122.923 29.4791 122.955 29.4498 122.98 29.4148C123.005 29.3798 123.023 29.34 123.032 29.2979L124.231 24.6455C124.531 25.2281 124.805 25.8193 125.088 26.419L123.589 32.5623C121.972 29.5107 119.875 26.7393 117.377 24.3542C111.383 18.7919 104.017 14.924 96.0354 13.1473C87.2906 10.9545 78.1024 11.2962 69.5446 14.1326C66.0906 15.3134 62.8524 17.0498 59.9576 19.2734C60.3174 16.7887 61.1913 13.4044 61.1998 13.3958C61.2101 13.3542 61.2119 13.3109 61.2054 13.2685C61.1989 13.2262 61.184 13.1855 61.1618 13.1489C61.1395 13.1123 61.1102 13.0804 61.0755 13.0552C61.0409 13.0299 61.0016 13.0117 60.9599 13.0017C60.9189 12.9901 60.8759 12.987 60.8336 12.9924C60.7912 12.9979 60.7505 13.0118 60.7137 13.0334C60.6769 13.055 60.6448 13.0838 60.6194 13.1181C60.594 13.1524 60.5758 13.1915 60.5658 13.233C60.0023 15.4118 59.559 17.62 59.2379 19.8474C56.9077 21.7692 54.9379 24.0901 53.4205 26.7018C53.4205 26.4876 53.4205 26.282 53.4634 26.0678C53.5823 24.9602 53.7973 23.8651 54.1059 22.7948C55.5133 18.1295 58.4115 14.0543 62.3565 11.1938C62.5449 11.0482 62.742 10.9197 62.9305 10.7911L61.6025 16.0861C61.5842 16.1701 61.5988 16.2578 61.6435 16.3312C61.6882 16.4046 61.7594 16.458 61.8424 16.4802C61.884 16.4905 61.9273 16.4924 61.9696 16.4858C62.012 16.4793 62.0527 16.4644 62.0893 16.4422C62.1259 16.4199 62.1578 16.3906 62.183 16.3559C62.2083 16.3213 62.2265 16.282 62.2365 16.2403L63.7444 10.2428C68.0326 7.48244 72.8508 5.64963 77.8894 4.86213C77.9537 4.85739 78.0162 4.83927 78.0731 4.80895C78.1299 4.77862 78.1798 4.73675 78.2196 4.68602C78.2593 4.63528 78.288 4.57681 78.3038 4.51434C78.3197 4.45187 78.3223 4.38679 78.3115 4.32326C78.3007 4.25972 78.2767 4.19915 78.2412 4.1454C78.2056 4.09166 78.1592 4.04594 78.105 4.01117C78.0507 3.9764 77.9898 3.95335 77.9261 3.94349C77.8624 3.93363 77.7974 3.93719 77.7352 3.95393C72.8204 4.73567 68.1091 6.48285 63.8729 9.09469C63.8333 9.04541 63.7794 9.00952 63.7187 8.99187C63.6358 8.97095 63.548 8.98349 63.4742 9.02677C63.4005 9.07006 63.3467 9.14062 63.3246 9.22321L63.2561 9.48881C62.7506 9.82296 62.2536 10.1657 61.7824 10.5255C57.6852 13.5137 54.6767 17.7589 53.2149 22.6149C52.8919 23.7354 52.6683 24.8823 52.5466 26.0421C52.4468 26.9208 52.4068 27.8054 52.4267 28.6895C52.3548 28.8478 52.3253 29.022 52.341 29.1951C52.5701 33.1085 53.6895 36.9181 55.6138 40.3334C57.3664 43.4387 59.6416 46.2184 62.3393 48.55L60.9085 49.1583C56.9914 45.9146 53.9635 41.7279 52.1097 36.9919C50.6292 32.9622 50.1987 28.6219 50.8588 24.3799C51.5228 21.4115 52.6813 18.5759 54.2858 15.9919C58.0898 10.3627 64.5155 6.19873 72.2777 3.99677C80.6979 1.72971 89.5551 1.63243 98.0231 3.71403C105.88 5.58183 113.95 9.42883 120.007 15.0922C125.079 19.8474 128.695 25.8793 129.5 33.0849C130.127 38.5578 129.741 44.0995 128.361 49.4325V49.4239Z" fill="black"/>
<path fill-rule="evenodd" clip-rule="evenodd" d="M75.3363 31.5342C75.3363 31.4479 75.302 31.365 75.241 31.304C75.1799 31.2429 75.0971 31.2086 75.0107 31.2086C74.9505 31.2127 74.8919 31.2303 74.8394 31.26C74.8824 31.3543 74.931 31.4458 74.985 31.5342C75.3363 32.1682 75.3363 31.5342 75.3363 31.5342Z" fill="black"/>
<path fill-rule="evenodd" clip-rule="evenodd" d="M74.8394 31.26C74.7823 31.1287 74.7137 30.9659 74.6338 30.7717C74.6852 31.2943 74.6852 31.5342 74.6852 31.5342C74.6856 31.4792 74.7 31.4252 74.727 31.3773C74.7539 31.3293 74.7926 31.289 74.8394 31.26Z" fill="black"/>
</svg>
